<svg viewBox="0 0 135 90" fill="none" xmlns="http://www.w3.org/2000/svg">
<path d="M29.167 41.1458C36.358 41.1459 42.1875 46.9761 42.1875 54.1672C42.1873 61.3582 36.3579 67.1876 29.167 67.1877C21.9759 67.1877 16.1457 61.3583 16.1455 54.1672C16.1455 46.976 21.9758 41.1458 29.167 41.1458ZM70.833 41.1458C78.0242 41.1458 83.8545 46.976 83.8545 54.1672C83.8543 61.3583 78.0241 67.1877 70.833 67.1877C63.6421 67.1876 57.8127 61.3582 57.8125 54.1672C57.8125 46.9761 63.6419 41.1459 70.833 41.1458ZM73.958 0.000244141C87.9915 0.000244141 99.4307 11.1008 99.9775 25.0002H100V57.8127H94.167C94.235 57.1276 94.2705 56.4328 94.2705 55.7297C94.2705 44.2238 84.9434 34.8958 73.4375 34.8958C61.9316 34.8958 52.6045 44.2238 52.6045 55.7297C52.6045 56.4328 52.64 57.1276 52.708 57.8127H47.292C47.36 57.1276 47.3955 56.4328 47.3955 55.7297C47.3955 44.2238 38.0684 34.8958 26.5625 34.8958C15.0566 34.8958 5.72949 44.2238 5.72949 55.7297C5.7295 56.4328 5.76498 57.1276 5.83301 57.8127H0V25.0002H0.0224609C0.569234 11.1007 12.0084 0.000244141 26.042 0.000244141C36.7959 0.00037594 46.0267 6.51916 50 15.8206C53.9734 6.5192 63.2041 0.000374406 73.958 0.000244141Z" fill="#EEF2F1"/>
<path d="M117.793 41.6182C118.238 40.835 119.224 40.5664 119.995 41.0185L129.763 46.7496C130.534 47.2018 130.798 48.2036 130.353 48.9868L111.217 82.6684C111.085 82.8996 110.9 83.0949 110.678 83.2368L100.468 89.7467C99.3721 90.4453 97.954 89.613 98.0011 88.2996L98.4433 76.0585C98.453 75.7916 98.5267 75.5311 98.6581 75.2998L117.793 41.6182ZM122.225 33.8186C122.67 33.0355 123.655 32.7676 124.426 33.2197L134.194 38.9509C134.964 39.403 135.229 40.4041 134.784 41.1872L133.173 44.0232C132.728 44.8064 131.742 45.075 130.971 44.6228L121.203 38.8917C120.433 38.4395 120.168 37.4378 120.613 36.6546L122.225 33.8186Z" fill="#EEF2F1"/>
</svg>
