<svg width="73" height="22" viewBox="0 0 73 22" fill="none" xmlns="http://www.w3.org/2000/svg">
<path d="M27.4875 4.76624C32.607 4.76624 36.4407 8.02017 36.4407 13.0387C36.4405 18.0822 32.6068 21.3356 27.4875 21.3356C22.3683 21.3355 18.5356 18.1074 18.5354 13.0387C18.5354 8.02022 22.3682 4.7663 27.4875 4.76624ZM70.2004 5.27112H73.0002V12.2565C71.7394 12.2565 69.7473 12.0296 68.3098 11.7018V12.4332C69.6212 12.7358 71.7394 12.9625 73.0002 12.9625V20.6295C71.361 21.0834 69.8476 21.1588 68.6624 21.1588C64.6527 21.1587 61.803 18.8637 61.803 15.1315V11.6012H60.7434V5.27112H61.6262V0.958618H70.2004V5.27112ZM45.2473 0.000610352C46.4326 0.000636922 48.8791 0.327941 49.5852 0.78186V5.82581C47.9208 5.82581 46.3313 5.59896 44.8938 5.27112V6.00256C46.2052 6.30519 47.8703 6.53186 49.5852 6.53186V11.6256H46.7854V20.6793H38.2112V11.6256H37.3284V5.27112H38.3879C39.0184 1.81615 41.2375 0.000610352 45.2473 0.000610352ZM59.5803 4.53967C58.3443 5.29614 54.9149 5.8512 53.0237 5.8512V6.55725C54.9149 6.55725 58.2183 6.12841 59.5803 5.27112V20.6793H51.0061V0.958618H59.5803V4.53967ZM12.8606 0.958618C15.4077 0.958618 17.6526 2.39652 17.6526 5.75061C17.6524 8.17128 16.5927 9.63428 15.1301 10.4664C16.7441 11.1726 17.9299 13.0637 17.9299 15.5856C17.9298 18.7882 15.6348 20.6549 13.0374 20.6549H3.04028V19.8405C3.30929 19.8986 3.58886 19.9303 3.87524 19.9303C6.04827 19.9301 7.80955 18.1687 7.80981 15.9957C7.80981 13.8225 6.04843 12.0604 3.87524 12.0602C3.58895 12.0602 3.30921 12.091 3.04028 12.149V10.8043C3.30927 10.8624 3.58888 10.8941 3.87524 10.8942C6.04839 10.894 7.80975 9.1318 7.80981 6.95862C7.80963 4.78554 6.04831 3.02426 3.87524 3.02405C3.58893 3.02407 3.30923 3.05483 3.04028 3.11292V0.958618H12.8606ZM3.43774 12.9342C4.80616 12.9342 5.91626 14.0443 5.91626 15.4127C5.91604 16.7809 4.80602 17.8903 3.43774 17.8903C2.06963 17.8901 0.96042 16.7808 0.960205 15.4127C0.960205 14.0444 2.0695 12.9344 3.43774 12.9342ZM30.5139 11.8785C29.2781 12.6351 26.3525 13.1901 24.4612 13.1901V13.8961C26.3526 13.8961 29.5558 13.4163 30.968 12.5084L30.5139 11.8785ZM3.43774 5.06409C4.80607 5.06409 5.91612 6.17333 5.91626 7.54163C5.91626 8.91004 4.80616 10.0192 3.43774 10.0192C2.0695 10.019 0.960205 8.90992 0.960205 7.54163C0.960344 6.17345 2.06958 5.06428 3.43774 5.06409Z" fill="white"/>
</svg>
