<svg width="128" height="128" viewBox="0 0 128 128" fill="none" xmlns="http://www.w3.org/2000/svg">
<rect width="128" height="128" rx="64" fill="#F8FAF9"/>
<path d="M46.7188 70.667C52.8551 70.667 57.8298 75.641 57.8301 81.7773C57.8301 87.9138 52.8552 92.8887 46.7188 92.8887C40.5823 92.8887 35.6074 87.9138 35.6074 81.7773C35.6077 75.641 40.5824 70.667 46.7188 70.667ZM82.2744 70.667C88.4107 70.667 93.3855 75.6411 93.3857 81.7773C93.3857 87.9138 88.4109 92.8886 82.2744 92.8887C76.1379 92.8887 71.1631 87.9138 71.1631 81.7773C71.1633 75.641 76.1381 70.667 82.2744 70.667ZM84.9414 35.5557C96.9164 35.5559 106.678 45.028 107.145 56.8887H107.163V84.8887H102.187C102.245 84.3041 102.274 83.7112 102.274 83.1113C102.274 73.2929 94.3145 65.333 84.4961 65.333C74.6779 65.3332 66.7188 73.2931 66.7188 83.1113C66.7188 83.7112 66.7486 84.3041 66.8066 84.8887H62.1865C62.2446 84.3041 62.2744 83.7112 62.2744 83.1113C62.2744 73.2929 54.3145 65.333 44.4961 65.333C34.6779 65.3332 26.7188 73.2931 26.7188 83.1113C26.7188 83.7112 26.7486 84.3041 26.8066 84.8887H21.8301V56.8887H21.8496C22.3164 45.0279 32.0775 35.5557 44.0527 35.5557C53.229 35.5558 61.1053 41.1181 64.4961 49.0547C67.8869 41.1178 75.7648 35.5557 84.9414 35.5557Z" fill="url(#paint0_linear_4118_4471)"/>
<defs>
<linearGradient id="paint0_linear_4118_4471" x1="21.8301" y1="35.5557" x2="74.9101" y2="114.559" gradientUnits="userSpaceOnUse">
<stop offset="0.542677" stop-color="#3CD986"/>
<stop offset="1" stop-color="#8FE95B"/>
</linearGradient>
</defs>
</svg>
