<svg width="36" height="36" viewBox="0 0 36 36" fill="none" xmlns="http://www.w3.org/2000/svg">
<rect width="36" height="36" rx="18" fill="#D8F7E7"/>
<path d="M13.1395 19.875C14.8654 19.875 16.2645 21.2741 16.2645 23C16.2645 24.7259 14.8654 26.125 13.1395 26.125C11.4136 26.125 10.0145 24.7259 10.0145 23C10.0145 21.2741 11.4136 19.875 13.1395 19.875ZM23.1395 19.875C24.8654 19.875 26.2645 21.2741 26.2645 23C26.2645 24.7259 24.8654 26.125 23.1395 26.125C21.4136 26.125 20.0145 24.7259 20.0145 23C20.0145 21.2741 21.4136 19.875 23.1395 19.875ZM23.8895 10C27.2576 10 30.0024 12.6641 30.1337 16H30.1395V23.875H28.7401C28.7564 23.7106 28.7645 23.5437 28.7645 23.375C28.7645 20.6136 26.5259 18.375 23.7645 18.375C21.0031 18.375 18.7645 20.6136 18.7645 23.375C18.7645 23.5437 18.7726 23.7106 18.7889 23.875H17.4901C17.5064 23.7106 17.5145 23.5437 17.5145 23.375C17.5145 20.6136 15.276 18.375 12.5145 18.375C9.7531 18.375 7.51453 20.6136 7.51453 23.375C7.51453 23.5437 7.52261 23.7106 7.53894 23.875H6.13953V16H6.14539C6.27659 12.6641 9.02146 10 12.3895 10C14.9708 10 17.1861 11.565 18.1395 13.7979C19.0929 11.5651 21.3082 10 23.8895 10Z" fill="url(#paint0_linear_2078_6276)"/>
<defs>
<linearGradient id="paint0_linear_2078_6276" x1="6.13953" y1="10" x2="21.0684" y2="32.2197" gradientUnits="userSpaceOnUse">
<stop offset="0.542677" stop-color="#3CD986"/>
<stop offset="1" stop-color="#8FE95B"/>
</linearGradient>
</defs>
</svg>
